<svg xmlns="http://www.w3.org/2000/svg" width="23.895" height="18" viewBox="0 0 23.895 18"><defs><style>.a,.b{fill:none;stroke:#000;stroke-linejoin:round;stroke-miterlimit:10;stroke-width:2px;}.b{stroke-linecap:round;}</style></defs><g transform="translate(-2 -7)"><circle class="a" cx="2.524" cy="2.524" r="2.524" transform="translate(11.423 14.74)"/><path class="a" d="M11.168,11.365h5.558c1.011,0,1.768.337,1.768,1.43h0a1.887,1.887,0,0,0,1.853,1.935h4.547A6.58,6.58,0,0,0,18.495,8H9.4A6.58,6.58,0,0,0,3,14.731H7.547A1.943,1.943,0,0,0,9.4,12.8h0C9.4,11.7,10.158,11.365,11.168,11.365Z"/><line class="b" y2="1.683" transform="translate(19.842 22.317)"/><line class="b" y2="1.683" transform="translate(8.053 22.317)"/><path class="a" d="M8.527,16A16.2,16.2,0,0,0,6,23.572H22.847A16.2,16.2,0,0,0,20.32,16" transform="translate(-0.476 -1.255)"/></g></svg>